<?xml version="1.0" encoding="UTF-8"?>
<svg id="Layer_1" xmlns="http://www.w3.org/2000/svg" version="1.1" viewBox="0 0 959.41 207.25">
  <!-- Generator: Adobe Illustrator 30.1.0, SVG Export Plug-In . SVG Version: 2.1.1 Build 136)  -->
  <defs>
    <style>
      .st0 {
        fill: #f4f5f6;
      }
    </style>
  </defs>
  <path class="st0" d="M33.05,146.26c34.32-30.54,68.64-61.09,102.96-91.63,31.74-27.89,60.68-43.82,80.43-43.82,19.75,0,16.57,15.94-7.89,43.82-27.23,30.54-54.47,61.09-81.7,91.63-24.46,27.89-57.02,43.82-91.05,43.82-34.03,0-34.48-15.94-2.74-43.82ZM94.26,148c30.69-31.71,61.39-63.41,92.08-95.12,11.99-12.45,12.1-17.18,5-17.18-7.1,0-16.53,4.73-29.62,17.18-33.2,31.71-66.41,63.41-99.61,95.12-13.1,12.45-11.57,17.18-1.24,17.18,10.33,0,21.39-4.73,33.39-17.18Z"/>
  <path class="st0" d="M253.5,13.29h20.92c-31.24,45.65-60.16,91.3-86.76,136.95,40.41-45.65,78.5-91.3,114.28-136.95h19.04c-42.29,58.1-88.85,116.2-139.69,174.29h-45.19c34.86-58.1,73.99-116.2,117.4-174.29Z"/>
  <path class="st0" d="M330.97,13.29h56.54c-3.05,8.3-6.11,16.6-9.16,24.9h-39.1c-7.68,15.35-15.35,30.71-23.03,46.06h35.9c-3.28,8.3-6.56,16.6-9.84,24.9h-38.51c-8.92,17.84-17.84,35.69-26.77,53.53h55.52c-3.05,8.3-6.11,16.6-9.16,24.9h-92.85c33.49-58.1,66.98-116.2,100.46-174.29Z"/>
  <path class="st0" d="M398.63,13.29h30.72c21.15,0,29.08,13.2,26.68,40.09-.36,3.57-.72,7.14-1.08,10.71-1.74,17.93-8.33,29.38-21.29,34.36-.03.17-.05.33-.08.5,12.92,4.23,16.32,17.18,14.42,36.85-1.02,10.21-2.04,20.42-3.06,30.63-.84,8.47-1.2,14.69,1.6,21.16h-34.67c-1.1-4.48-1.83-7.22.68-21.41,1.87-10.62,3.75-21.25,5.62-31.87,2.79-16.18-1.18-21.41-14-21.41h-9.79c-6.24,24.9-12.48,49.8-18.73,74.7h-34.05c19-58.1,38.01-116.2,57.01-174.29ZM410.25,87.99c9.9,0,16.73-4.48,19.13-18.43l2.38-13.45c2.16-12.45-.37-17.93-8.35-17.93h-10.29c-4.16,16.6-8.32,33.2-12.48,49.8h9.61Z"/>
  <path class="st0" d="M462.97,146.26c.2-3.32.4-6.64.6-9.96h28.48c.05,3.98.09,7.97.14,11.95.09,12.45,6.63,16.93,16.96,16.93,10.33,0,16.7-4.48,15.45-17.43-1.23-14.44-9.16-23.41-28.03-39.09-23.74-20.17-29.11-34.61-28.03-54.53,2.05-27.39,13.67-43.32,33.24-43.32,19.58,0,32.13,15.94,37.09,43.82.4,2.41.79,4.81,1.19,7.22h-23.11c-.28-2.99-.55-5.98-.83-8.96-1.2-12.45-5.71-17.18-12.81-17.18-7.1,0-11.3,4.73-11.17,16.68.29,12.7,5.46,21.66,24,37.35,24.09,20.17,35.35,34.36,38.85,56.02,5.16,28.38-10.22,44.32-44.25,44.32-34.02,0-49.83-15.94-47.77-43.82Z"/>
  <path class="st0" d="M544.51,13.29h20.73c16.66,58.1,33.33,116.2,49.99,174.29h-34.05c-12.23-58.1-24.45-116.2-36.68-174.29Z"/>
  <path class="st0" d="M624.15,146.26c-10.33-30.54-20.66-61.09-30.99-91.63-9.04-27.89-3.95-43.82,15.81-43.82,19.76,0,39.26,15.94,55.43,43.82,2.82,4.98,5.64,9.96,8.46,14.94h-23.66c-2.75-5.56-5.49-11.12-8.24-16.68-6.2-12.45-13.02-17.18-20.11-17.18-7.1,0-9.61,4.73-4.51,17.18,13.18,31.79,26.36,63.58,39.54,95.36,5.1,12.45,13.45,16.93,23.77,16.93,10.33,0,14.6-4.48,8.4-16.93-5.61-11.37-11.23-22.74-16.84-34.11h-14.22c-3.78-8.3-7.56-16.6-11.34-24.9h38.35c10.76,19.01,21.51,38.01,32.27,57.02,16.17,27.89,7.78,43.82-26.24,43.82-34.02,0-56.82-15.94-65.86-43.82Z"/>
  <path class="st0" d="M654.58,13.29h20.73c16.38,23.65,32.75,47.31,49.13,70.96h28.05c-18.32-23.65-36.63-47.31-54.95-70.96h20.73c49.42,58.1,98.85,116.2,148.27,174.29h-34.05c-20.24-26.14-40.49-52.29-60.73-78.43h-30.09c18.1,26.14,36.2,52.29,54.3,78.43h-34.05c-35.79-58.1-71.57-116.2-107.36-174.29Z"/>
  <path class="st0" d="M774.04,38.19h-23.66c-7.37-8.3-14.73-16.6-22.1-24.9h64.08c9.33,8.3,18.65,16.6,27.98,24.9h-23.66c51.98,49.8,103.96,99.6,155.93,149.4h-34.05c-48.17-49.8-96.35-99.6-144.52-149.4Z"/>
</svg>